<svg
    xmlns="http://www.w3.org/2000/svg"
    viewBox="0 0 24 24"
    id="vector">
    <path
        id="path_1"
        d="M 4 21 C 2.89 21 2 20.11 2 19 L 2 19 L 2 9 C 2 7.89 2.89 7 4 7 L 4 7 L 9.34 7 L 6.75 4.41 L 8.16 3 L 12 6.84 L 15.84 3 L 17.25 4.41 L 14.66 7 L 20 7 C 21.11 7 22 7.89 22 9 L 22 9 L 22 19 C 22 20.11 21.11 21 20 21 L 20 21 Z M 17 9 L 4 9 L 4 19 L 6.517 19 L 6.517 16.517 C 6.517 15.323 7.023 14.247 7.832 13.492 L 7.357 13.018 C 7.256 13.051 7.147 13.069 7.035 13.069 C 6.463 13.069 6 12.606 6 12.034 C 6 11.463 6.463 11 7.035 11 C 7.606 11 8.069 11.463 8.069 12.034 C 8.069 12.239 8.009 12.431 7.907 12.591 L 8.377 13.062 C 9.031 12.631 9.813 12.379 10.655 12.379 C 11.497 12.379 12.28 12.631 12.933 13.062 L 13.404 12.591 C 13.301 12.431 13.241 12.239 13.241 12.034 C 13.241 11.463 13.704 11 14.276 11 C 14.847 11 15.31 11.463 15.31 12.034 C 15.31 12.606 14.847 13.069 14.276 13.069 C 14.163 13.069 14.055 13.051 13.953 13.018 L 13.478 13.492 C 14.287 14.247 14.793 15.323 14.793 16.517 L 14.793 19 L 17 19 L 17 9 Z M 10.655 14.103 C 9.703 14.103 8.931 14.875 8.931 15.828 C 8.931 16.78 9.703 17.552 10.655 17.552 C 11.607 17.552 12.379 16.78 12.379 15.828 C 12.379 14.875 11.607 14.103 10.655 14.103 Z M 10.655 14.793 C 11.226 14.793 11.69 15.256 11.69 15.828 C 11.69 16.399 11.226 16.862 10.655 16.862 C 10.084 16.862 9.621 16.399 9.621 15.828 C 9.621 15.256 10.084 14.793 10.655 14.793 Z M 19.5 12 C 18.948 12 18.5 12.448 18.5 13 C 18.5 13.552 18.948 14 19.5 14 C 20.052 14 20.5 13.552 20.5 13 C 20.5 12.448 20.052 12 19.5 12 Z M 19.5 9 C 18.948 9 18.5 9.448 18.5 10 C 18.5 10.552 18.948 11 19.5 11 C 20.052 11 20.5 10.552 20.5 10 C 20.5 9.448 20.052 9 19.5 9 Z"
        fill="#ffffff"/>
</svg>
