<svg
    xmlns="http://www.w3.org/2000/svg"
    viewBox="0 0 24 24"
    id="vector">
    <path
        id="path"
        d="M 19.552 2 C 20.694 2 21.621 2.926 21.621 4.069 C 21.621 5.212 20.694 6.138 19.552 6.138 C 19.326 6.138 19.109 6.102 18.906 6.035 L 17.957 6.984 C 19.575 8.495 20.586 10.646 20.586 13.034 L 20.586 19.241 C 20.586 20.765 19.351 22 17.828 22 C 16.304 22 15.069 20.765 15.069 19.241 C 15.069 20.765 13.834 22 12.31 22 C 10.787 22 9.552 20.765 9.552 19.241 C 9.552 20.765 8.316 22 6.793 22 C 5.298 22 4.081 20.811 4.036 19.327 L 4.035 19.241 L 4.035 13.034 C 4.035 10.646 5.046 8.495 6.664 6.984 L 5.715 6.035 C 5.511 6.102 5.295 6.138 5.069 6.138 C 3.926 6.138 3 5.212 3 4.069 C 3 2.926 3.926 2 5.069 2 C 6.212 2 7.138 2.926 7.138 4.069 C 7.138 4.479 7.019 4.861 6.813 5.183 L 7.754 6.124 C 9.061 5.261 10.627 4.759 12.31 4.759 C 13.994 4.759 15.56 5.261 16.866 6.124 L 17.808 5.183 C 17.602 4.861 17.483 4.479 17.483 4.069 C 17.483 2.926 18.409 2 19.552 2 Z M 12.31 8.207 C 10.406 8.207 8.862 9.751 8.862 11.655 C 8.862 13.56 10.406 15.103 12.31 15.103 C 14.215 15.103 15.759 13.56 15.759 11.655 C 15.759 9.751 14.215 8.207 12.31 8.207 Z M 12.31 9.586 C 13.453 9.586 14.379 10.512 14.379 11.655 C 14.379 12.798 13.453 13.724 12.31 13.724 C 11.168 13.724 10.241 12.798 10.241 11.655 C 10.241 10.512 11.168 9.586 12.31 9.586 Z"
        fill="#ffffff"/>
</svg>
