<?xml version="1.0" encoding="utf-8"?>
<svg height="24dp" viewBox="0 0 24 24" width="24dp" xmlns="http://www.w3.org/2000/svg">
    <path
        d="M4,6L2,6L2,20C2,21.1046 2.8954,22 4,22L18,22L18,20L4,20L4,6M20,2L8,2C6.8954,2 6,2.8954 6,4L6,16C6,17.1046 6.8954,18 8,18L20,18C21.1046,18 22,17.1046 22,16L22,4C22,2.8954 21.1046,2 20,2M10,15L8,15L8,13L10,13L10,15M10,11L8,11L8,9L10,9L10,11M10,7L8,7L8,5L10,5L10,7M20,15L18,15L18,13L20,13L20,15M20,11L18,11L18,9L20,9L20,11M20,7L18,7L18,5L20,5L20,7Z"
        fill="#ffffffff" />
</svg>
